<?xml version="1.0" standalone="no"?>
<!DOCTYPE svg PUBLIC "-//W3C//DTD SVG 20010904//EN"
 "http://www.w3.org/TR/2001/REC-SVG-20010904/DTD/svg10.dtd">
<svg version="1.0" xmlns="http://www.w3.org/2000/svg"
 width="1024.000000pt" height="721.000000pt" viewBox="0 0 1024.000000 721.000000"
 preserveAspectRatio="xMidYMid meet">
<metadata>
Created by potrace 1.13, written by Peter Selinger 2001-2015
</metadata>
<g transform="translate(0.000000,721.000000) scale(0.100000,-0.100000)"
fill="#000000" stroke="none">
<path d="M4275 7194 c-1698 -29 -2756 -79 -3056 -144 -258 -56 -471 -171 -657
-353 -178 -176 -288 -396 -383 -765 -48 -187 -63 -278 -89 -542 -59 -608 -70
-887 -70 -1782 0 -913 17 -1300 81 -1888 49 -450 177 -845 351 -1082 96 -131
248 -254 414 -337 393 -195 921 -237 3554 -282 1535 -26 3973 42 4520 127 409
63 762 297 943 624 82 148 170 408 221 646 41 193 90 711 116 1212 13 260 13
1696 0 1952 -21 405 -68 946 -96 1115 -20 121 -79 347 -121 470 -82 236 -176
395 -315 532 -219 215 -463 331 -796 377 -275 39 -1120 80 -2182 106 -394 10
-2094 20 -2435 14z m1183 -2769 c749 -390 1362 -712 1362 -715 0 -4 -1570
-820 -2572 -1337 l-178 -92 0 1430 c0 1199 2 1430 14 1427 7 -2 626 -322 1374
-713z"/>
</g>
</svg>
