<?xml version="1.0" standalone="no"?>
<!DOCTYPE svg PUBLIC "-//W3C//DTD SVG 20010904//EN"
 "http://www.w3.org/TR/2001/REC-SVG-20010904/DTD/svg10.dtd">
<svg version="1.0" xmlns="http://www.w3.org/2000/svg"
 width="626.000000pt" height="626.000000pt" viewBox="0 0 626.000000 626.000000"
 preserveAspectRatio="xMidYMid meet">
<metadata>
Created by potrace 1.13, written by Peter Selinger 2001-2015
</metadata>
<g transform="translate(0.000000,626.000000) scale(0.100000,-0.100000)"
fill="#000000" stroke="none">
<path d="M174 6235 c-67 -33 -121 -88 -151 -152 l-24 -51 3 -384 c3 -380 3
-383 26 -428 29 -55 56 -85 102 -115 55 -35 95 -43 250 -55 632 -49 1282 -230
1850 -516 142 -72 291 -151 335 -179 17 -10 46 -28 65 -40 469 -291 833 -596
1172 -983 102 -116 135 -157 250 -311 333 -448 616 -1001 776 -1516 120 -386
185 -723 218 -1119 11 -143 19 -189 35 -221 28 -55 81 -107 137 -136 47 -24
48 -24 430 -27 434 -3 427 -4 517 79 94 87 105 140 81 399 -65 704 -210 1310
-448 1875 -69 165 -84 198 -163 361 -135 277 -241 462 -411 719 -260 391 -453
625 -809 980 -185 185 -262 258 -405 380 -178 153 -612 468 -745 541 -11 6
-65 38 -120 71 -314 188 -828 423 -1170 534 -525 171 -916 251 -1485 304 -220
21 -256 20 -316 -10z"/>
<path d="M199 3971 c-68 -21 -134 -79 -170 -149 l-24 -47 0 -380 0 -380 27
-45 c70 -117 122 -141 368 -170 201 -24 499 -106 700 -192 126 -54 300 -144
368 -190 24 -17 62 -41 84 -53 23 -13 84 -56 136 -97 272 -211 526 -482 694
-743 227 -352 371 -748 423 -1164 21 -171 42 -227 104 -283 86 -77 97 -79 507
-76 l359 3 48 25 c58 29 121 101 142 160 8 23 15 68 15 99 0 82 -35 345 -65
491 -51 252 -104 426 -221 730 -45 114 -210 442 -278 548 -36 57 -66 105 -66
108 0 2 -33 49 -72 105 -40 55 -80 111 -88 122 -8 12 -72 90 -141 172 -187
221 -419 443 -639 611 -77 59 -238 174 -244 174 -2 0 -51 30 -108 66 -106 68
-434 233 -548 278 -229 88 -335 123 -510 170 -299 80 -708 135 -801 107z"/>
<path d="M745 1700 c-76 -9 -212 -48 -266 -76 -114 -58 -241 -167 -326 -279
-45 -59 -89 -153 -120 -252 -24 -79 -27 -103 -27 -238 0 -135 3 -159 27 -238
112 -366 411 -597 792 -614 227 -10 432 64 597 216 131 121 203 234 250 393
26 92 30 118 30 238 0 105 -5 153 -21 215 -63 238 -222 438 -436 548 -143 73
-333 106 -500 87z"/>
</g>
</svg>
