<svg version="1.2" baseProfile="tiny-ps" xmlns="http://www.w3.org/2000/svg" viewBox="0 0 1080 1080" width="1080" height="1080">
	<title>Logo</title>

	<style>
		tspan { white-space:pre }
		.shp0 { fill: none;stroke: #fbfbfb;stroke-linejoin:round;stroke-width: 30 } 
		.shp1 { fill: none;stroke: #fbfbfb;stroke-linejoin:round;stroke-width: 25 } 
	</style>
	<path id="Shape 1" class="shp0" d="M153.74 353.63L153.74 349.26L399.99 349.26L399.99 353.63L153.74 353.63Z" />
	<path id="Shape 1 copy" class="shp0" d="M671.45 737.71L671.45 733.29L921.05 733.29L921.05 737.71L671.45 737.71Z" />
	<path id="Shape 2" class="shp0" d="M307.96 361.41L312.16 361.41L312.16 727L307.96 727L307.96 361.41Z" />
	<path id="Shape 2 copy" class="shp0" d="M758.43 363.09L762.63 363.09L762.63 728.68L758.43 728.68L758.43 363.09Z" />
	<path id="Layer 1" class="shp0" d="M397.81 353.2L401.24 350.76L672.78 732.7L669.36 735.13L397.81 353.2Z" />
	<path id="Shape 3" class="shp1" d="M539.5 974C299.22 974 105 779.78 105 539.5C105 299.22 299.22 105 539.5 105C779.78 105 974 299.22 974 539.5C974 779.78 779.78 974 539.5 974Z" />
</svg>